<svg xmlns="http://www.w3.org/2000/svg" viewBox="0 0 1715 974" preserveAspectRatio="xMidYMid" width="1715" height="974" xmlns:xlink="http://www.w3.org/1999/xlink" style="shape-rendering:auto;display:block;background-position-x:0%;background-position-y:0%;background-size:auto;background-origin:padding-box;background-clip:border-box;background:scroll rgb(26, 27, 32) none  repeat;width:1715px;height:974px;;animation:none"><g><g transform="matrix(1,0,0,1,0,0)" style="transform:matrix(1, 0, 0, 1, 0, 0);;animation:none"><path stroke-width="2" stroke-opacity="0" stroke="rgb(229, 50, 56)" fill="none" d="M 0 477.5 C 286 477.5 572 672.5 858 672.5 C 1144 672.5 1430 477.5 1716 477.5 C 2002 477.5 2288 672.5 2574 672.5 C 2860 672.5 3146 477.5 3432 477.5" transform="matrix(1,0,0,1,0,0)" style="fill:none;stroke:rgb(229, 50, 56);transform:matrix(1, 0, 0, 1, 0, 0);;animation:none"></path></g>
<g transform="matrix(0.9986295347545738,0.052335956242943835,-0.052335956242943835,0.9986295347545738,26.662784638266544,-44.21066590380178)" style="transform:matrix(0.99863, 0.052336, -0.052336, 0.99863, 26.6628, -44.2107);;animation:none"><path stroke-width="2" stroke-opacity="0" stroke="rgb(229, 50, 56)" fill="none" d="M 0 477.517 C 286 477.517 572 672.483 858 672.483 C 1144 672.483 1430 477.517 1716 477.517 C 2002 477.517 2288 672.483 2574 672.483 C 2860 672.483 3146 477.517 3432 477.517" transform="matrix(1,0,0,1,-6.860000133514404,0)" style="fill:none;stroke:rgb(229, 50, 56);transform:matrix(1, 0, 0, 1, -6.86, 0);;animation:none"></path></g>
<g transform="matrix(0.9945218953682733,0.10452846326765347,-0.10452846326765347,0.9945218953682733,55.60283633305289,-86.96532029636194)" style="transform:matrix(0.994522, 0.104528, -0.104528, 0.994522, 55.6028, -86.9653);;animation:none"><path stroke-width="2" stroke-opacity="0" stroke="rgb(229, 50, 56)" fill="none" d="M 0 477.568 C 286 477.568 572 672.432 858 672.432 C 1144 672.432 1430 477.568 1716 477.568 C 2002 477.568 2288 672.432 2574 672.432 C 2860 672.432 3146 477.568 3432 477.568" transform="matrix(1,0,0,1,-13.720000267028809,0)" style="fill:none;stroke:rgb(229, 50, 56);transform:matrix(1, 0, 0, 1, -13.72, 0);;animation:none"></path></g>
<g transform="matrix(0.9876883405951378,0.15643446504023087,-0.15643446504023087,0.9876883405951378,86.74083241426172,-128.14677564183012)" style="transform:matrix(0.987688, 0.156434, -0.156434, 0.987688, 86.7408, -128.147);;animation:none"><path stroke-width="2" stroke-opacity="0" stroke="rgb(228, 50, 56)" fill="none" d="M 0 477.653 C 286 477.653 572 672.347 858 672.347 C 1144 672.347 1430 477.653 1716 477.653 C 2002 477.653 2288 672.347 2574 672.347 C 2860 672.347 3146 477.653 3432 477.653" transform="matrix(1,0,0,1,-20.579999923706055,0)" style="fill:none;stroke:rgb(228, 50, 56);transform:matrix(1, 0, 0, 1, -20.58, 0);;animation:none"></path></g>
<g transform="matrix(0.9781476007338057,0.20791169081775934,-0.20791169081775934,0.9781476007338057,119.99142579901047,-167.64215643359205)" style="transform:matrix(0.978148, 0.207912, -0.207912, 0.978148, 119.991, -167.642);;animation:none"><path stroke-width="2" stroke-opacity="0" stroke="rgb(228, 50, 57)" fill="none" d="M 0 477.774 C 286 477.774 572 672.226 858 672.226 C 1144 672.226 1430 477.774 1716 477.774 C 2002 477.774 2288 672.226 2574 672.226 C 2860 672.226 3146 477.774 3432 477.774" transform="matrix(1,0,0,1,-27.440000534057617,0)" style="fill:none;stroke:rgb(228, 50, 57);transform:matrix(1, 0, 0, 1, -27.44, 0);;animation:none"></path></g>
<g transform="matrix(0.9659258262890683,0.25881904510252074,-0.25881904510252074,0.9659258262890683,155.2634789220515,-205.34320857818784)" style="transform:matrix(0.965926, 0.258819, -0.258819, 0.965926, 155.263, -205.343);;animation:none"><path stroke-width="2" stroke-opacity="0" stroke="rgb(227, 50, 57)" fill="none" d="M 0 477.931 C 286 477.931 572 672.069 858 672.069 C 1144 672.069 1430 477.931 1716 477.931 C 2002 477.931 2288 672.069 2574 672.069 C 2860 672.069 3146 477.931 3432 477.931" transform="matrix(1,0,0,1,-34.29999923706055,0)" style="fill:none;stroke:rgb(227, 50, 57);transform:matrix(1, 0, 0, 1, -34.3, 0);;animation:none"></path></g>
<g transform="matrix(0.9510565162951535,0.3090169943749474,-0.3090169943749474,0.9510565162951535,192.46031353750527,-241.14659611225716)" style="transform:matrix(0.951057, 0.309017, -0.309017, 0.951057, 192.46, -241.147);;animation:none"><path stroke-width="2" stroke-opacity="0" stroke="rgb(226, 51, 58)" fill="none" d="M 0 478.126 C 286 478.126 572 671.874 858 671.874 C 1144 671.874 1430 478.126 1716 478.126 C 2002 478.126 2288 671.874 2574 671.874 C 2860 671.874 3146 478.126 3432 478.126" transform="matrix(1,0,0,1,-41.15999984741211,0)" style="fill:none;stroke:rgb(226, 51, 58);transform:matrix(1, 0, 0, 1, -41.16, 0);;animation:none"></path></g>
<g transform="matrix(0.9335804264972017,0.35836794954530027,-0.35836794954530027,0.9335804264972017,231.47997570721077,-274.9541844392322)" style="transform:matrix(0.93358, 0.358368, -0.358368, 0.93358, 231.48, -274.954);;animation:none"><path stroke-width="2" stroke-opacity="0" stroke="rgb(225, 51, 59)" fill="none" d="M 0 478.358 C 286 478.358 572 671.642 858 671.642 C 1144 671.642 1430 478.358 1716 478.358 C 2002 478.358 2288 671.642 2574 671.642 C 2860 671.642 3146 478.358 3432 478.358" transform="matrix(1,0,0,1,-48.02000045776367,0)" style="fill:none;stroke:rgb(225, 51, 59);transform:matrix(1, 0, 0, 1, -48.02, 0);;animation:none"></path></g>
<g transform="matrix(0.9135454576426009,0.4067366430758002,-0.4067366430758002,0.9135454576426009,272.21551524938445,-306.67330930944536)" style="transform:matrix(0.913545, 0.406737, -0.406737, 0.913545, 272.216, -306.673);;animation:none"><path stroke-width="2" stroke-opacity="0" stroke="rgb(223, 51, 60)" fill="none" d="M 0 478.629 C 286 478.629 572 671.371 858 671.371 C 1144 671.371 1430 478.629 1716 478.629 C 2002 478.629 2288 671.371 2574 671.371 C 2860 671.371 3146 478.629 3432 478.629" transform="matrix(1,0,0,1,-54.880001068115234,0)" style="fill:none;stroke:rgb(223, 51, 60);transform:matrix(1, 0, 0, 1, -54.88, 0);;animation:none"></path></g>
<g transform="matrix(0.8910065241883679,0.45399049973954675,-0.45399049973954675,0.8910065241883679,314.55527888163374,-336.21703080639645)" style="transform:matrix(0.891007, 0.45399, -0.45399, 0.891007, 314.555, -336.217);;animation:none"><path stroke-width="2" stroke-opacity="0" stroke="rgb(222, 52, 61)" fill="none" d="M 0 478.939 C 286 478.939 572 671.061 858 671.061 C 1144 671.061 1430 478.939 1716 478.939 C 2002 478.939 2288 671.061 2574 671.061 C 2860 671.061 3146 478.939 3432 478.939" transform="matrix(1,0,0,1,-61.73999786376953,0)" style="fill:none;stroke:rgb(222, 52, 61);transform:matrix(1, 0, 0, 1, -61.74, 0);;animation:none"></path></g>
<g transform="matrix(0.8660254037844387,0.49999999999999994,-0.49999999999999994,0.8660254037844387,358.3832162548438,-363.5043716430216)" style="transform:matrix(0.866025, 0.5, -0.5, 0.866025, 358.383, -363.504);;animation:none"><path stroke-width="2" stroke-opacity="0" stroke="rgb(220, 52, 62)" fill="none" d="M 0 479.291 C 286 479.291 572 670.709 858 670.709 C 1144 670.709 1430 479.291 1716 479.291 C 2002 479.291 2288 670.709 2574 670.709 C 2860 670.709 3146 479.291 3432 479.291" transform="matrix(1,0,0,1,-68.5999984741211,0)" style="fill:none;stroke:rgb(220, 52, 62);transform:matrix(1, 0, 0, 1, -68.6, 0);;animation:none"></path></g>
<g transform="matrix(0.838670567945424,0.5446390350150271,-0.5446390350150271,0.838670567945424,403.57919803911705,-388.46053911480726)" style="transform:matrix(0.838671, 0.544639, -0.544639, 0.838671, 403.579, -388.461);;animation:none"><path stroke-width="2" stroke-opacity="0" stroke="rgb(218, 52, 64)" fill="none" d="M 0 479.683 C 286 479.683 572 670.317 858 670.317 C 1144 670.317 1430 479.683 1716 479.683 C 2002 479.683 2288 670.317 2574 670.317 C 2860 670.317 3146 479.683 3432 479.683" transform="matrix(1,0,0,1,-75.45999908447266,0)" style="fill:none;stroke:rgb(218, 52, 64);transform:matrix(1, 0, 0, 1, -75.46, 0);;animation:none"></path></g>
<g transform="matrix(0.8090169943749475,0.5877852522924731,-0.5877852522924731,0.8090169943749475,450.019345189917,-411.0171301013952)" style="transform:matrix(0.809017, 0.587785, -0.587785, 0.809017, 450.019, -411.017);;animation:none"><path stroke-width="2" stroke-opacity="0" stroke="rgb(215, 53, 65)" fill="none" d="M 0 480.118 C 286 480.118 572 669.882 858 669.882 C 1144 669.882 1430 480.118 1716 480.118 C 2002 480.118 2288 669.882 2574 669.882 C 2860 669.882 3146 480.118 3432 480.118" transform="matrix(1,0,0,1,-82.31999969482422,0)" style="fill:none;stroke:rgb(215, 53, 65);transform:matrix(1, 0, 0, 1, -82.32, 0);;animation:none"></path></g>
<g transform="matrix(0.7771459614569709,0.6293203910498374,-0.6293203910498374,0.7771459614569709,497.57636849191823,-431.11231855478036)" style="transform:matrix(0.777146, 0.62932, -0.62932, 0.777146, 497.576, -431.112);;animation:none"><path stroke-width="2" stroke-opacity="0" stroke="rgb(213, 54, 67)" fill="none" d="M 0 480.596 C 286 480.596 572 669.404 858 669.404 C 1144 669.404 1430 480.596 1716 480.596 C 2002 480.596 2288 669.404 2574 669.404 C 2860 669.404 3146 480.596 3432 480.596" transform="matrix(1,0,0,1,-89.18000030517578,0)" style="fill:none;stroke:rgb(213, 54, 67);transform:matrix(1, 0, 0, 1, -89.18, 0);;animation:none"></path></g>
<g transform="matrix(0.7431448254773942,0.6691306063588582,-0.6691306063588582,0.7431448254773942,546.1199174498984,-448.69102496021196)" style="transform:matrix(0.743145, 0.669131, -0.669131, 0.743145, 546.12, -448.691);;animation:none"><path stroke-width="2" stroke-opacity="0" stroke="rgb(210, 54, 69)" fill="none" d="M 0 481.118 C 286 481.118 572 668.882 858 668.882 C 1144 668.882 1430 481.118 1716 481.118 C 2002 481.118 2288 668.882 2574 668.882 C 2860 668.882 3146 481.118 3432 481.118" transform="matrix(1,0,0,1,-96.04000091552734,0)" style="fill:none;stroke:rgb(210, 54, 69);transform:matrix(1, 0, 0, 1, -96.04, 0);;animation:none"></path></g>
<g transform="matrix(0.7071067811865476,0.7071067811865475,-0.7071067811865475,0.7071067811865476,595.516937570384,-463.70506730531315)" style="transform:matrix(0.707107, 0.707107, -0.707107, 0.707107, 595.517, -463.705);;animation:none"><path stroke-width="2" stroke-opacity="0" stroke="rgb(207, 55, 71)" fill="none" d="M 0 481.685 C 286 481.685 572 668.315 858 668.315 C 1144 668.315 1430 481.685 1716 481.685 C 2002 481.685 2288 668.315 2574 668.315 C 2860 668.315 3146 481.685 3432 481.685" transform="matrix(1,0,0,1,-102.89999389648438,0)" style="fill:none;stroke:rgb(207, 55, 71);transform:matrix(1, 0, 0, 1, -102.9, 0);;animation:none"></path></g>
<g transform="matrix(0.6691306063588582,0.7431448254773942,-0.7431448254773942,0.6691306063588582,645.6320350547701,-476.11329314362956)" style="transform:matrix(0.669131, 0.743145, -0.743145, 0.669131, 645.632, -476.113);;animation:none"><path stroke-width="2" stroke-opacity="0" stroke="rgb(203, 56, 73)" fill="none" d="M 0 482.299 C 286 482.299 572 667.701 858 667.701 C 1144 667.701 1430 482.299 1716 482.299 C 2002 482.299 2288 667.701 2574 667.701 C 2860 667.701 3146 482.299 3432 482.299" transform="matrix(1,0,0,1,-109.76000213623047,0)" style="fill:none;stroke:rgb(203, 56, 73);transform:matrix(1, 0, 0, 1, -109.76, 0);;animation:none"></path></g>
<g transform="matrix(0.6293203910498374,0.7771459614569709,-0.7771459614569709,0.6293203910498374,696.3278479043092,-485.88169239062336)" style="transform:matrix(0.62932, 0.777146, -0.777146, 0.62932, 696.328, -485.882);;animation:none"><path stroke-width="2" stroke-opacity="0" stroke="rgb(200, 56, 76)" fill="none" d="M 0 482.96 C 286 482.96 572 667.04 858 667.04 C 1144 667.04 1430 482.96 1716 482.96 C 2002 482.96 2288 667.04 2574 667.04 C 2860 667.04 3146 482.96 3432 482.96" transform="matrix(1,0,0,1,-116.62000274658203,0)" style="fill:none;stroke:rgb(200, 56, 76);transform:matrix(1, 0, 0, 1, -116.62, 0);;animation:none"></path></g>
<g transform="matrix(0.5877852522924731,0.8090169943749475,-0.8090169943749475,0.5877852522924731,747.4654224198036,-492.9834905429518)" style="transform:matrix(0.587785, 0.809017, -0.809017, 0.587785, 747.465, -492.983);;animation:none"><path stroke-width="2" stroke-opacity="0" stroke="rgb(196, 57, 78)" fill="none" d="M 0 483.669 C 286 483.669 572 666.331 858 666.331 C 1144 666.331 1430 483.669 1716 483.669 C 2002 483.669 2288 666.331 2574 666.331 C 2860 666.331 3146 483.669 3432 483.669" transform="matrix(1,0,0,1,-123.47999572753906,0)" style="fill:none;stroke:rgb(196, 57, 78);transform:matrix(1, 0, 0, 1, -123.48, 0);;animation:none"></path></g>
<g transform="matrix(0.5446390350150271,0.838670567945424,-0.838670567945424,0.5446390350150271,798.9045940640358,-497.3992220655193)" style="transform:matrix(0.544639, 0.838671, -0.838671, 0.544639, 798.905, -497.399);;animation:none"><path stroke-width="2" stroke-opacity="0" stroke="rgb(191, 58, 81)" fill="none" d="M 0 484.428 C 286 484.428 572 665.572 858 665.572 C 1144 665.572 1430 484.428 1716 484.428 C 2002 484.428 2288 665.572 2574 665.572 C 2860 665.572 3146 484.428 3432 484.428" transform="matrix(1,0,0,1,-130.33999633789062,0)" style="fill:none;stroke:rgb(191, 58, 81);transform:matrix(1, 0, 0, 1, -130.34, 0);;animation:none"></path></g>
<g transform="matrix(0.5000000000000001,0.8660254037844386,-0.8660254037844386,0.5000000000000001,850.5043716430215,-499.1167837451562)" style="transform:matrix(0.5, 0.866025, -0.866025, 0.5, 850.504, -499.117);;animation:none"><path stroke-width="2" stroke-opacity="0" stroke="rgb(187, 59, 85)" fill="none" d="M 0 485.237 C 286 485.237 572 664.763 858 664.763 C 1144 664.763 1430 485.237 1716 485.237 C 2002 485.237 2288 664.763 2574 664.763 C 2860 664.763 3146 485.237 3432 485.237" transform="matrix(1,0,0,1,-137.1999969482422,0)" style="fill:none;stroke:rgb(187, 59, 85);transform:matrix(1, 0, 0, 1, -137.2, 0);;animation:none"></path></g>
<g transform="matrix(0.45399049973954686,0.8910065241883679,-0.8910065241883679,0.45399049973954686,902.1233237530737,-498.13146786468485)" style="transform:matrix(0.45399, 0.891007, -0.891007, 0.45399, 902.123, -498.131);;animation:none"><path stroke-width="2" stroke-opacity="0" stroke="rgb(182, 60, 88)" fill="none" d="M 0 486.097 C 286 486.097 572 663.903 858 663.903 C 1144 663.903 1430 486.097 1716 486.097 C 2002 486.097 2288 663.903 2574 663.903 C 2860 663.903 3146 486.097 3432 486.097" transform="matrix(1,0,0,1,-144.05999755859375,0)" style="fill:none;stroke:rgb(182, 60, 88);transform:matrix(1, 0, 0, 1, -144.06, 0);;animation:none"></path></g>
<g transform="matrix(0.4067366430758002,0.9135454576426009,-0.9135454576426009,0.4067366430758002,953.6199664344479,-494.44597510644485)" style="transform:matrix(0.406737, 0.913545, -0.913545, 0.406737, 953.62, -494.446);;animation:none"><path stroke-width="2" stroke-opacity="0" stroke="rgb(176, 62, 92)" fill="none" d="M 0 487.01 C 286 487.01 572 662.99 858 662.99 C 1144 662.99 1430 487.01 1716 487.01 C 2002 487.01 2288 662.99 2574 662.99 C 2860 662.99 3146 487.01 3432 487.01" transform="matrix(1,0,0,1,-150.9199981689453,0)" style="fill:none;stroke:rgb(176, 62, 92);transform:matrix(1, 0, 0, 1, -150.92, 0);;animation:none"></path></g>
<g transform="matrix(0.3583679495453004,0.9335804264972017,-0.9335804264972017,0.3583679495453004,1004.8531509690422,-488.0704071499117)" style="transform:matrix(0.358368, 0.93358, -0.93358, 0.358368, 1004.85, -488.07);;animation:none"><path stroke-width="2" stroke-opacity="0" stroke="rgb(170, 63, 95)" fill="none" d="M 0 487.977 C 286 487.977 572 662.023 858 662.023 C 1144 662.023 1430 487.977 1716 487.977 C 2002 487.977 2288 662.023 2574 662.023 C 2860 662.023 3146 487.977 3432 487.977" transform="matrix(1,0,0,1,-157.77999877929688,0)" style="fill:none;stroke:rgb(170, 63, 95);transform:matrix(1, 0, 0, 1, -157.78, 0);;animation:none"></path></g>
<g transform="matrix(0.30901699437494745,0.9510565162951535,-0.9510565162951535,0.30901699437494745,1055.6824507592223,-479.02223898369357)" style="transform:matrix(0.309017, 0.951057, -0.951057, 0.309017, 1055.68, -479.022);;animation:none"><path stroke-width="2" stroke-opacity="0" stroke="rgb(165, 64, 99)" fill="none" d="M 0 488.999 C 286 488.999 572 661.001 858 661.001 C 1144 661.001 1430 488.999 1716 488.999 C 2002 488.999 2288 661.001 2574 661.001 C 2860 661.001 3146 488.999 3432 488.999" transform="matrix(1,0,0,1,-164.63999938964844,0)" style="fill:none;stroke:rgb(165, 64, 99);transform:matrix(1, 0, 0, 1, -164.64, 0);;animation:none"></path></g>
<g transform="matrix(0.25881904510252074,0.9659258262890683,-0.9659258262890683,0.25881904510252074,1105.9685462273646,-467.3262710078036)" style="transform:matrix(0.258819, 0.965926, -0.965926, 0.258819, 1105.97, -467.326);;animation:none"><path stroke-width="2" stroke-opacity="0" stroke="rgb(158, 65, 104)" fill="none" d="M 0 490.077 C 286 490.077 572 659.923 858 659.923 C 1144 659.923 1430 490.077 1716 490.077 C 2002 490.077 2288 659.923 2574 659.923 C 2860 659.923 3146 490.077 3432 490.077" transform="matrix(1,0,0,1,-171.5,0)" style="fill:none;stroke:rgb(158, 65, 104);transform:matrix(1, 0, 0, 1, -171.5, 0);;animation:none"></path></g>
<g transform="matrix(0.20791169081775945,0.9781476007338056,-0.9781476007338056,0.20791169081775945,1155.5736066811346,-453.0145610574871)" style="transform:matrix(0.207912, 0.978148, -0.978148, 0.207912, 1155.57, -453.015);;animation:none"><path stroke-width="2" stroke-opacity="0" stroke="rgb(152, 67, 108)" fill="none" d="M 0 491.211 C 286 491.211 572 658.789 858 658.789 C 1144 658.789 1430 491.211 1716 491.211 C 2002 491.211 2288 658.789 2574 658.789 C 2860 658.789 3146 491.211 3432 491.211" transform="matrix(1,0,0,1,-178.36000061035156,0)" style="fill:none;stroke:rgb(152, 67, 108);transform:matrix(1, 0, 0, 1, -178.36, 0);;animation:none"></path></g>
<g transform="matrix(0.15643446504023092,0.9876883405951378,-0.9876883405951378,0.15643446504023092,1204.3616680978341,-436.1263365349232)" style="transform:matrix(0.156434, 0.987688, -0.987688, 0.156434, 1204.36, -436.126);;animation:none"><path stroke-width="2" stroke-opacity="0" stroke="rgb(145, 68, 113)" fill="none" d="M 0 492.404 C 286 492.404 572 657.596 858 657.596 C 1144 657.596 1430 492.404 1716 492.404 C 2002 492.404 2288 657.596 2574 657.596 C 2860 657.596 3146 492.404 3432 492.404" transform="matrix(1,0,0,1,-185.22000122070312,0)" style="fill:none;stroke:rgb(145, 68, 113);transform:matrix(1, 0, 0, 1, -185.22, 0);;animation:none"></path></g>
<g transform="matrix(0.10452846326765346,0.9945218953682733,-0.9945218953682733,0.10452846326765346,1252.1990057923363,-416.7078868896415)" style="transform:matrix(0.104528, 0.994522, -0.994522, 0.104528, 1252.2, -416.708);;animation:none"><path stroke-width="2" stroke-opacity="0" stroke="rgb(138, 70, 117)" fill="none" d="M 0 493.657 C 286 493.657 572 656.343 858 656.343 C 1144 656.343 1430 493.656 1716 493.656 C 2002 493.656 2288 656.343 2574 656.343 C 2860 656.343 3146 493.656 3432 493.656" transform="matrix(1,0,0,1,-192.0800018310547,0)" style="fill:none;stroke:rgb(138, 70, 117);transform:matrix(1, 0, 0, 1, -192.08, 0);;animation:none"></path></g>
<g transform="matrix(0.052335956242943966,0.9986295347545738,-0.9986295347545738,0.052335956242943966,1298.954500947153,-394.8124367423608)" style="transform:matrix(0.052336, 0.99863, -0.99863, 0.052336, 1298.95, -394.812);;animation:none"><path stroke-width="2" stroke-opacity="0" stroke="rgb(131, 71, 122)" fill="none" d="M 0 494.969 C 286 494.969 572 655.031 858 655.031 C 1144 655.031 1430 494.969 1716 494.969 C 2002 494.969 2288 655.031 2574 655.031 C 2860 655.031 3146 494.969 3432 494.969" transform="matrix(1,0,0,1,-198.9395751953125,0)" style="fill:none;stroke:rgb(131, 71, 122);transform:matrix(1, 0, 0, 1, -198.94, 0);;animation:none"></path></g>
<g transform="matrix(6.123233995736766e-17,1,-1,6.123233995736766e-17,1344.5,-370.5)" style="transform:matrix(0, 1, -1, 0, 1344.5, -370.5);;animation:none"><path stroke-width="2" stroke-opacity="0" stroke="rgb(124, 73, 127)" fill="none" d="M 0 496.343 C 286 496.343 572 653.657 858 653.657 C 1144 653.657 1430 496.343 1716 496.343 C 2002 496.343 2288 653.657 2574 653.657 C 2860 653.657 3146 496.343 3432 496.343" transform="matrix(1,0,0,1,-205.79998779296875,0)" style="fill:none;stroke:rgb(124, 73, 127);transform:matrix(1, 0, 0, 1, -205.8, 0);;animation:none"></path></g>
<g transform="matrix(-0.05233595624294384,0.9986295347545738,-0.9986295347545738,-0.05233595624294384,1388.7106659038018,-343.83721536173346)" style="transform:matrix(-0.052336, 0.99863, -0.99863, -0.052336, 1388.71, -343.837);;animation:none"><path stroke-width="2" stroke-opacity="0" stroke="rgb(116, 75, 132)" fill="none" d="M 0 497.78 C 286 497.78 572 652.22 858 652.22 C 1144 652.22 1430 497.78 1716 497.78 C 2002 497.78 2288 652.22 2574 652.22 C 2860 652.22 3146 497.78 3432 497.78" transform="matrix(1,0,0,1,-212.66000366210938,0)" style="fill:none;stroke:rgb(116, 75, 132);transform:matrix(1, 0, 0, 1, -212.66, 0);;animation:none"></path></g>
<g transform="matrix(-0.10452846326765355,0.9945218953682733,-0.9945218953682733,-0.10452846326765355,1431.465320296362,-314.897163666947)" style="transform:matrix(-0.104528, 0.994522, -0.994522, -0.104528, 1431.47, -314.897);;animation:none"><path stroke-width="2" stroke-opacity="0" stroke="rgb(109, 76, 137)" fill="none" d="M 0 499.28 C 286 499.28 572 650.72 858 650.72 C 1144 650.72 1430 499.28 1716 499.28 C 2002 499.28 2288 650.72 2574 650.72 C 2860 650.72 3146 499.28 3432 499.28" transform="matrix(1,0,0,1,-219.52000427246094,0)" style="fill:none;stroke:rgb(109, 76, 137);transform:matrix(1, 0, 0, 1, -219.52, 0);;animation:none"></path></g>
<g transform="matrix(-0.1564344650402308,0.9876883405951378,-0.9876883405951378,-0.1564344650402308,1472.6467756418301,-283.7591675857383)" style="transform:matrix(-0.156434, 0.987688, -0.987688, -0.156434, 1472.65, -283.759);;animation:none"><path stroke-width="2" stroke-opacity="0" stroke="rgb(102, 78, 142)" fill="none" d="M 0 500.845 C 286 500.845 572 649.155 858 649.155 C 1144 649.155 1430 500.845 1716 500.845 C 2002 500.845 2288 649.155 2574 649.155 C 2860 649.155 3146 500.845 3432 500.845" transform="matrix(1,0,0,1,-226.3800048828125,0)" style="fill:none;stroke:rgb(102, 78, 142);transform:matrix(1, 0, 0, 1, -226.38, 0);;animation:none"></path></g>
<g transform="matrix(-0.20791169081775934,0.9781476007338057,-0.9781476007338057,-0.20791169081775934,1512.142156433592,-250.50857420098953)" style="transform:matrix(-0.207912, 0.978148, -0.978148, -0.207912, 1512.14, -250.509);;animation:none"><path stroke-width="2" stroke-opacity="0" stroke="rgb(95, 79, 146)" fill="none" d="M 0 502.475 C 286 502.475 572 647.525 858 647.525 C 1144 647.525 1430 502.475 1716 502.475 C 2002 502.475 2288 647.525 2574 647.525 C 2860 647.525 3146 502.475 3432 502.475" transform="matrix(1,0,0,1,-233.24000549316406,0)" style="fill:none;stroke:rgb(95, 79, 146);transform:matrix(1, 0, 0, 1, -233.24, 0);;animation:none"></path></g>
<g transform="matrix(-0.25881904510252085,0.9659258262890683,-0.9659258262890683,-0.25881904510252085,1549.8432085781878,-215.2365210779484)" style="transform:matrix(-0.258819, 0.965926, -0.965926, -0.258819, 1549.84, -215.237);;animation:none"><path stroke-width="2" stroke-opacity="0" stroke="rgb(87, 81, 151)" fill="none" d="M 0 504.171 C 286 504.171 572 645.829 858 645.829 C 1144 645.829 1430 504.171 1716 504.171 C 2002 504.171 2288 645.829 2574 645.829 C 2860 645.829 3146 504.171 3432 504.171" transform="matrix(1,0,0,1,-240.10000610351562,0)" style="fill:none;stroke:rgb(87, 81, 151);transform:matrix(1, 0, 0, 1, -240.1, 0);;animation:none"></path></g>
<g transform="matrix(-0.30901699437494734,0.9510565162951536,-0.9510565162951536,-0.30901699437494734,1585.6465961122572,-178.03968646249496)" style="transform:matrix(-0.309017, 0.951057, -0.951057, -0.309017, 1585.65, -178.04);;animation:none"><path stroke-width="2" stroke-opacity="0" stroke="rgb(81, 82, 156)" fill="none" d="M 0 505.934 C 286 505.934 572 644.066 858 644.066 C 1144 644.066 1430 505.934 1716 505.934 C 2002 505.934 2288 644.066 2574 644.066 C 2860 644.066 3146 505.934 3432 505.934" transform="matrix(1,0,0,1,-246.95999145507812,0)" style="fill:none;stroke:rgb(81, 82, 156);transform:matrix(1, 0, 0, 1, -246.96, 0);;animation:none"></path></g>
<g transform="matrix(-0.35836794954530027,0.9335804264972017,-0.9335804264972017,-0.35836794954530027,1619.4541844392322,-139.02002429278923)" style="transform:matrix(-0.358368, 0.93358, -0.93358, -0.358368, 1619.45, -139.02);;animation:none"><path stroke-width="2" stroke-opacity="0" stroke="rgb(74, 84, 160)" fill="none" d="M 0 507.764 C 286 507.764 572 642.236 858 642.236 C 1144 642.236 1430 507.764 1716 507.764 C 2002 507.764 2288 642.236 2574 642.236 C 2860 642.236 3146 507.764 3432 507.764" transform="matrix(1,0,0,1,-253.82000732421875,0)" style="fill:none;stroke:rgb(74, 84, 160);transform:matrix(1, 0, 0, 1, -253.82, 0);;animation:none"></path></g>
<g transform="matrix(-0.40673664307580026,0.9135454576426009,-0.9135454576426009,-0.40673664307580026,1651.1733093094454,-98.28448475061543)" style="transform:matrix(-0.406737, 0.913545, -0.913545, -0.406737, 1651.17, -98.2845);;animation:none"><path stroke-width="2" stroke-opacity="0" stroke="rgb(68, 85, 165)" fill="none" d="M 0 509.663 C 286 509.663 572 640.337 858 640.337 C 1144 640.337 1430 509.663 1716 509.663 C 2002 509.663 2288 640.337 2574 640.337 C 2860 640.337 3146 509.663 3432 509.663" transform="matrix(1,0,0,1,-260.67999267578125,0)" style="fill:none;stroke:rgb(68, 85, 165);transform:matrix(1, 0, 0, 1, -260.68, 0);;animation:none"></path></g>
<g transform="matrix(-0.45399049973954675,0.8910065241883679,-0.8910065241883679,-0.45399049973954675,1680.7170308063965,-55.94472111836626)" style="transform:matrix(-0.45399, 0.891007, -0.891007, -0.45399, 1680.72, -55.9447);;animation:none"><path stroke-width="2" stroke-opacity="0" stroke="rgb(61, 87, 169)" fill="none" d="M 0 511.63 C 286 511.63 572 638.37 858 638.37 C 1144 638.37 1430 511.63 1716 511.63 C 2002 511.63 2288 638.37 2574 638.37 C 2860 638.37 3146 511.63 3432 511.63" transform="matrix(1,0,0,1,-267.5400085449219,0)" style="fill:none;stroke:rgb(61, 87, 169);transform:matrix(1, 0, 0, 1, -267.54, 0);;animation:none"></path></g>
<g transform="matrix(-0.49999999999999983,0.8660254037844387,-0.8660254037844387,-0.49999999999999983,1708.0043716430214,-12.11678374515634)" style="transform:matrix(-0.5, 0.866025, -0.866025, -0.5, 1708, -12.1168);;animation:none"><path stroke-width="2" stroke-opacity="0" stroke="rgb(56, 88, 173)" fill="none" d="M 0 513.666 C 286 513.666 572 636.334 858 636.334 C 1144 636.334 1430 513.666 1716 513.666 C 2002 513.666 2288 636.334 2574 636.334 C 2860 636.334 3146 513.666 3432 513.666" transform="matrix(1,0,0,1,-274.3999938964844,0)" style="fill:none;stroke:rgb(56, 88, 173);transform:matrix(1, 0, 0, 1, -274.4, 0);;animation:none"></path></g>
<g transform="matrix(-0.5446390350150272,0.838670567945424,-0.838670567945424,-0.5446390350150272,1732.9605391148073,33.0791980391171)" style="transform:matrix(-0.544639, 0.838671, -0.838671, -0.544639, 1732.96, 33.0792);;animation:none"><path stroke-width="2" stroke-opacity="0" stroke="rgb(50, 89, 176)" fill="none" d="M 0 515.771 C 286 515.771 572 634.229 858 634.229 C 1144 634.229 1430 515.771 1716 515.771 C 2002 515.771 2288 634.229 2574 634.229 C 2860 634.229 3146 515.771 3432 515.771" transform="matrix(1,0,0,1,-281.260009765625,0)" style="fill:none;stroke:rgb(50, 89, 176);transform:matrix(1, 0, 0, 1, -281.26, 0);;animation:none"></path></g>
<g transform="matrix(-0.587785252292473,0.8090169943749475,-0.8090169943749475,-0.587785252292473,1755.517130101395,79.51934518991692)" style="transform:matrix(-0.587785, 0.809017, -0.809017, -0.587785, 1755.52, 79.5193);;animation:none"><path stroke-width="2" stroke-opacity="0" stroke="rgb(45, 90, 180)" fill="none" d="M 0 517.945 C 286 517.945 572 632.055 858 632.055 C 1144 632.055 1430 517.945 1716 517.945 C 2002 517.945 2288 632.055 2574 632.055 C 2860 632.055 3146 517.945 3432 517.945" transform="matrix(1,0,0,1,-288.1199951171875,0)" style="fill:none;stroke:rgb(45, 90, 180);transform:matrix(1, 0, 0, 1, -288.12, 0);;animation:none"></path></g>
<g transform="matrix(-0.6293203910498373,0.777145961456971,-0.777145961456971,-0.6293203910498373,1775.6123185547804,127.07636849191817)" style="transform:matrix(-0.62932, 0.777146, -0.777146, -0.62932, 1775.61, 127.076);;animation:none"><path stroke-width="2" stroke-opacity="0" stroke="rgb(40, 91, 183)" fill="none" d="M 0 520.187 C 286 520.187 572 629.813 858 629.813 C 1144 629.813 1430 520.187 1716 520.187 C 2002 520.187 2288 629.813 2574 629.813 C 2860 629.813 3146 520.187 3432 520.187" transform="matrix(1,0,0,1,-294.9800109863281,0)" style="fill:none;stroke:rgb(40, 91, 183);transform:matrix(1, 0, 0, 1, -294.98, 0);;animation:none"></path></g>
<g transform="matrix(-0.6691306063588582,0.7431448254773942,-0.7431448254773942,-0.6691306063588582,1793.191024960212,175.61991744989837)" style="transform:matrix(-0.669131, 0.743145, -0.743145, -0.669131, 1793.19, 175.62);;animation:none"><path stroke-width="2" stroke-opacity="0" stroke="rgb(36, 92, 186)" fill="none" d="M 0 522.497 C 286 522.497 572 627.503 858 627.503 C 1144 627.503 1430 522.497 1716 522.497 C 2002 522.497 2288 627.503 2574 627.503 C 2860 627.503 3146 522.497 3432 522.497" transform="matrix(1,0,0,1,-301.8399963378906,0)" style="fill:none;stroke:rgb(36, 92, 186);transform:matrix(1, 0, 0, 1, -301.84, 0);;animation:none"></path></g>
<g transform="matrix(-0.7071067811865475,0.7071067811865476,-0.7071067811865476,-0.7071067811865475,1808.2050673053132,225.01693757038407)" style="transform:matrix(-0.707107, 0.707107, -0.707107, -0.707107, 1808.21, 225.017);;animation:none"><path stroke-width="2" stroke-opacity="0" stroke="rgb(31, 93, 189)" fill="none" d="M 0 524.875 C 286 524.875 572 625.125 858 625.125 C 1144 625.125 1430 524.875 1716 524.875 C 2002 524.875 2288 625.125 2574 625.125 C 2860 625.125 3146 524.875 3432 524.875" transform="matrix(1,0,0,1,-308.70001220703125,0)" style="fill:none;stroke:rgb(31, 93, 189);transform:matrix(1, 0, 0, 1, -308.7, 0);;animation:none"></path></g>
<g transform="matrix(-0.743144825477394,0.6691306063588585,-0.6691306063588585,-0.743144825477394,1820.6132931436296,275.13203505476974)" style="transform:matrix(-0.743145, 0.669131, -0.669131, -0.743145, 1820.61, 275.132);;animation:none"><path stroke-width="2" stroke-opacity="0" stroke="rgb(27, 94, 192)" fill="none" d="M 0 527.319 C 286 527.319 572 622.681 858 622.681 C 1144 622.681 1430 527.319 1716 527.319 C 2002 527.319 2288 622.681 2574 622.681 C 2860 622.681 3146 527.319 3432 527.319" transform="matrix(1,0,0,1,-315.55999755859375,0)" style="fill:none;stroke:rgb(27, 94, 192);transform:matrix(1, 0, 0, 1, -315.56, 0);;animation:none"></path></g>
<g transform="matrix(-0.7771459614569709,0.6293203910498374,-0.6293203910498374,-0.7771459614569709,1830.3816923906234,325.8278479043093)" style="transform:matrix(-0.777146, 0.62932, -0.62932, -0.777146, 1830.38, 325.828);;animation:none"><path stroke-width="2" stroke-opacity="0" stroke="rgb(24, 95, 194)" fill="none" d="M 0 529.828 C 286 529.828 572 620.172 858 620.172 C 1144 620.172 1430 529.828 1716 529.828 C 2002 529.828 2288 620.172 2574 620.172 C 2860 620.172 3146 529.828 3432 529.828" transform="matrix(1,0,0,1,-322.41998291015625,0)" style="fill:none;stroke:rgb(24, 95, 194);transform:matrix(1, 0, 0, 1, -322.42, 0);;animation:none"></path></g>
<g transform="matrix(-0.8090169943749473,0.5877852522924732,-0.5877852522924732,-0.8090169943749473,1837.4834905429518,376.96542241980353)" style="transform:matrix(-0.809017, 0.587785, -0.587785, -0.809017, 1837.48, 376.965);;animation:none"><path stroke-width="2" stroke-opacity="0" stroke="rgb(21, 96, 196)" fill="none" d="M 0 532.401 C 286 532.401 572 617.599 858 617.599 C 1144 617.599 1430 532.401 1716 532.401 C 2002 532.401 2288 617.599 2574 617.599 C 2860 617.599 3146 532.401 3432 532.401" transform="matrix(1,0,0,1,-329.2799987792969,0)" style="fill:none;stroke:rgb(21, 96, 196);transform:matrix(1, 0, 0, 1, -329.28, 0);;animation:none"></path></g>
<g transform="matrix(-0.8386705679454239,0.5446390350150273,-0.5446390350150273,-0.8386705679454239,1841.8992220655193,428.40459406403556)" style="transform:matrix(-0.838671, 0.544639, -0.544639, -0.838671, 1841.9, 428.405);;animation:none"><path stroke-width="2" stroke-opacity="0" stroke="rgb(18, 96, 198)" fill="none" d="M 0 535.035 C 286 535.035 572 614.965 858 614.965 C 1144 614.965 1430 535.035 1716 535.035 C 2002 535.035 2288 614.965 2574 614.965 C 2860 614.965 3146 535.035 3432 535.035" transform="matrix(1,0,0,1,-336.1399841308594,0)" style="fill:none;stroke:rgb(18, 96, 198);transform:matrix(1, 0, 0, 1, -336.14, 0);;animation:none"></path></g>
<g transform="matrix(-0.8660254037844387,0.49999999999999994,-0.49999999999999994,-0.8660254037844387,1843.6167837451562,480.0043716430217)" style="transform:matrix(-0.866025, 0.5, -0.5, -0.866025, 1843.62, 480.004);;animation:none"><path stroke-width="2" stroke-opacity="0" stroke="rgb(15, 97, 200)" fill="none" d="M 0 537.729 C 286 537.729 572 612.271 858 612.271 C 1144 612.271 1430 537.729 1716 537.729 C 2002 537.729 2288 612.271 2574 612.271 C 2860 612.271 3146 537.729 3432 537.729" transform="matrix(1,0,0,1,-343,0)" style="fill:none;stroke:rgb(15, 97, 200);transform:matrix(1, 0, 0, 1, -343, 0);;animation:none"></path></g>
<g transform="matrix(-0.8910065241883678,0.45399049973954686,-0.45399049973954686,-0.8910065241883678,1842.6314678646847,531.6233237530737)" style="transform:matrix(-0.891007, 0.45399, -0.45399, -0.891007, 1842.63, 531.623);;animation:none"><path stroke-width="2" stroke-opacity="0" stroke="rgb(12, 97, 202)" fill="none" d="M 0 540.479 C 286 540.479 572 609.521 858 609.521 C 1144 609.521 1430 540.479 1716 540.479 C 2002 540.479 2288 609.521 2574 609.521 C 2860 609.521 3146 540.479 3432 540.479" transform="matrix(1,0,0,1,-349.8599853515625,0)" style="fill:none;stroke:rgb(12, 97, 202);transform:matrix(1, 0, 0, 1, -349.86, 0);;animation:none"></path></g>
<g transform="matrix(-0.9135454576426008,0.40673664307580043,-0.40673664307580043,-0.9135454576426008,1838.945975106445,583.1199664344476)" style="transform:matrix(-0.913545, 0.406737, -0.406737, -0.913545, 1838.95, 583.12);;animation:none"><path stroke-width="2" stroke-opacity="0" stroke="rgb(10, 98, 203)" fill="none" d="M 0 543.284 C 286 543.284 572 606.716 858 606.716 C 1144 606.716 1430 543.284 1716 543.284 C 2002 543.284 2288 606.716 2574 606.716 C 2860 606.716 3146 543.284 3432 543.284" transform="matrix(1,0,0,1,-356.7200012207031,0)" style="fill:none;stroke:rgb(10, 98, 203);transform:matrix(1, 0, 0, 1, -356.72, 0);;animation:none"></path></g>
<g transform="matrix(-0.9335804264972017,0.3583679495453002,-0.3583679495453002,-0.9335804264972017,1832.5704071499117,634.3531509690423)" style="transform:matrix(-0.93358, 0.358368, -0.358368, -0.93358, 1832.57, 634.353);;animation:none"><path stroke-width="2" stroke-opacity="0" stroke="rgb(8, 98, 205)" fill="none" d="M 0 546.14 C 286 546.14 572 603.86 858 603.86 C 1144 603.86 1430 546.14 1716 546.14 C 2002 546.14 2288 603.86 2574 603.86 C 2860 603.86 3146 546.14 3432 546.14" transform="matrix(1,0,0,1,-363.5799865722656,0)" style="fill:none;stroke:rgb(8, 98, 205);transform:matrix(1, 0, 0, 1, -363.58, 0);;animation:none"></path></g>
<g transform="matrix(-0.9510565162951535,0.3090169943749475,-0.3090169943749475,-0.9510565162951535,1823.5222389836936,685.1824507592223)" style="transform:matrix(-0.951057, 0.309017, -0.309017, -0.951057, 1823.52, 685.182);;animation:none"><path stroke-width="2" stroke-opacity="0" stroke="rgb(6, 99, 206)" fill="none" d="M 0 549.043 C 286 549.043 572 600.957 858 600.957 C 1144 600.957 1430 549.043 1716 549.043 C 2002 549.043 2288 600.957 2574 600.957 C 2860 600.957 3146 549.043 3432 549.043" transform="matrix(1,0,0,1,-370.44000244140625,0)" style="fill:none;stroke:rgb(6, 99, 206);transform:matrix(1, 0, 0, 1, -370.44, 0);;animation:none"></path></g>
<g transform="matrix(-0.9659258262890682,0.258819045102521,-0.258819045102521,-0.9659258262890682,1811.8262710078038,735.4685462273644)" style="transform:matrix(-0.965926, 0.258819, -0.258819, -0.965926, 1811.83, 735.469);;animation:none"><path stroke-width="2" stroke-opacity="0" stroke="rgb(5, 99, 207)" fill="none" d="M 0 551.989 C 286 551.989 572 598.01 858 598.01 C 1144 598.01 1430 551.989 1716 551.989 C 2002 551.989 2288 598.01 2574 598.01 C 2860 598.01 3146 551.989 3432 551.989" transform="matrix(1,0,0,1,-377.29998779296875,0)" style="fill:none;stroke:rgb(5, 99, 207);transform:matrix(1, 0, 0, 1, -377.3, 0);;animation:none"></path></g>
<g transform="matrix(-0.9781476007338057,0.20791169081775931,-0.20791169081775931,-0.9781476007338057,1797.5145610574873,785.0736066811348)" style="transform:matrix(-0.978148, 0.207912, -0.207912, -0.978148, 1797.51, 785.074);;animation:none"><path stroke-width="2" stroke-opacity="0" stroke="rgb(4, 99, 208)" fill="none" d="M 0 554.975 C 286 554.975 572 595.025 858 595.025 C 1144 595.025 1430 554.975 1716 554.975 C 2002 554.975 2288 595.025 2574 595.025 C 2860 595.025 3146 554.975 3432 554.975" transform="matrix(1,0,0,1,-384.1600036621094,0)" style="fill:none;stroke:rgb(4, 99, 208);transform:matrix(1, 0, 0, 1, -384.16, 0);;animation:none"></path></g>
<g transform="matrix(-0.9876883405951377,0.15643446504023098,-0.15643446504023098,-0.9876883405951377,1780.6263365349232,833.861668097834)" style="transform:matrix(-0.987688, 0.156434, -0.156434, -0.987688, 1780.63, 833.862);;animation:none"><path stroke-width="2" stroke-opacity="0" stroke="rgb(3, 99, 208)" fill="none" d="M 0 557.995 C 286 557.995 572 592.005 858 592.005 C 1144 592.005 1430 557.995 1716 557.995 C 2002 557.995 2288 592.005 2574 592.005 C 2860 592.005 3146 557.995 3432 557.995" transform="matrix(1,0,0,1,-391.0195617675781,0)" style="fill:none;stroke:rgb(3, 99, 208);transform:matrix(1, 0, 0, 1, -391.02, 0);;animation:none"></path></g>
<g transform="matrix(-0.9945218953682733,0.10452846326765373,-0.10452846326765373,-0.9945218953682733,1761.2078868896417,881.699005792336)" style="transform:matrix(-0.994522, 0.104528, -0.104528, -0.994522, 1761.21, 881.699);;animation:none"><path stroke-width="2" stroke-opacity="0" stroke="rgb(2, 100, 209)" fill="none" d="M 0 561.045 C 286 561.045 572 588.955 858 588.955 C 1144 588.955 1430 561.045 1716 561.045 C 2002 561.045 2288 588.955 2574 588.955 C 2860 588.955 3146 561.045 3432 561.045" transform="matrix(1,0,0,1,-397.87957763671875,0)" style="fill:none;stroke:rgb(2, 100, 209);transform:matrix(1, 0, 0, 1, -397.88, 0);;animation:none"></path></g>
<g transform="matrix(-0.9986295347545738,0.05233595624294381,-0.05233595624294381,-0.9986295347545738,1739.3124367423607,928.4545009471532)" style="transform:matrix(-0.99863, 0.052336, -0.052336, -0.99863, 1739.31, 928.455);;animation:none"><path stroke-width="2" stroke-opacity="0" stroke="rgb(1, 100, 209)" fill="none" d="M 0 564.12 C 286 564.12 572 585.88 858 585.88 C 1144 585.88 1430 564.12 1716 564.12 C 2002 564.12 2288 585.88 2574 585.88 C 2860 585.88 3146 564.12 3432 564.12" transform="matrix(1,0,0,1,-404.739990234375,0)" style="fill:none;stroke:rgb(1, 100, 209);transform:matrix(1, 0, 0, 1, -404.74, 0);;animation:none"></path></g>
<g transform="matrix(-1,1.2246467991473532e-16,-1.2246467991473532e-16,-1,1715,973.9999999999999)" style="transform:matrix(-1, 0, 0, -1, 1715, 974);;animation:none"><path stroke-width="2" stroke-opacity="0" stroke="rgb(1, 100, 210)" fill="none" d="M 0 567.215 C 286 567.215 572 582.785 858 582.785 C 1144 582.785 1430 567.215 1716 567.215 C 2002 567.215 2288 582.785 2574 582.785 C 2860 582.785 3146 567.215 3432 567.215" transform="matrix(1,0,0,1,-411.5999755859375,0)" style="fill:none;stroke:rgb(1, 100, 210);transform:matrix(1, 0, 0, 1, -411.6, 0);;animation:none"></path></g>
<g transform="matrix(-0.9986295347545738,-0.052335956242943564,0.052335956242943564,-0.9986295347545738,1688.3372153617336,1018.2106659038016)" style="transform:matrix(-0.99863, -0.052336, 0.052336, -0.99863, 1688.34, 1018.21);;animation:none"><path stroke-width="2" stroke-opacity="0.01694915254237288" stroke="rgb(0, 100, 210)" fill="none" d="M 0 570.323 C 286 570.323 572 579.677 858 579.677 C 1144 579.677 1430 570.323 1716 570.323 C 2002 570.323 2288 579.677 2574 579.677 C 2860 579.677 3146 570.323 3432 570.323" transform="matrix(1,0,0,1,-418.4599914550781,0)" style="fill:none;stroke:rgb(0, 100, 210);transform:matrix(1, 0, 0, 1, -418.46, 0);;animation:none"></path></g>
<g transform="matrix(-0.9945218953682733,-0.1045284632676535,0.1045284632676535,-0.9945218953682733,1659.397163666947,1060.9653202963618)" style="transform:matrix(-0.994522, -0.104528, 0.104528, -0.994522, 1659.4, 1060.97);;animation:none"><path stroke-width="2" stroke-opacity="0.03389830508474576" stroke="rgb(0, 100, 210)" fill="none" d="M 0 573.44 C 286 573.44 572 576.56 858 576.56 C 1144 576.56 1430 573.44 1716 573.44 C 2002 573.44 2288 576.56 2574 576.56 C 2860 576.56 3146 573.44 3432 573.44" transform="matrix(1,0,0,1,-425.32000732421875,0)" style="fill:none;stroke:rgb(0, 100, 210);transform:matrix(1, 0, 0, 1, -425.32, 0);;animation:none"></path></g>
<g transform="matrix(-0.9876883405951378,-0.15643446504023073,0.15643446504023073,-0.9876883405951378,1628.2591675857384,1102.1467756418301)" style="transform:matrix(-0.987688, -0.156434, 0.156434, -0.987688, 1628.26, 1102.15);;animation:none"><path stroke-width="2" stroke-opacity="0.05084745762711865" stroke="rgb(0, 100, 210)" fill="none" d="M 0 576.56 C 286 576.56 572 573.44 858 573.44 C 1144 573.44 1430 576.56 1716 576.56 C 2002 576.56 2288 573.44 2574 573.44 C 2860 573.44 3146 576.56 3432 576.56" transform="matrix(1,0,0,1,-432.17999267578125,0)" style="fill:none;stroke:rgb(0, 100, 210);transform:matrix(1, 0, 0, 1, -432.18, 0);;animation:none"></path></g>
<g transform="matrix(-0.9781476007338056,-0.2079116908177595,0.2079116908177595,-0.9781476007338056,1595.0085742009894,1141.6421564335922)" style="transform:matrix(-0.978148, -0.207912, 0.207912, -0.978148, 1595.01, 1141.64);;animation:none"><path stroke-width="2" stroke-opacity="0.06779661016949153" stroke="rgb(0, 100, 210)" fill="none" d="M 0 579.677 C 286 579.677 572 570.323 858 570.323 C 1144 570.323 1430 579.677 1716 579.677 C 2002 579.677 2288 570.323 2574 570.323 C 2860 570.323 3146 579.677 3432 579.677" transform="matrix(1,0,0,1,-439.0400085449219,0)" style="fill:none;stroke:rgb(0, 100, 210);transform:matrix(1, 0, 0, 1, -439.04, 0);;animation:none"></path></g>
<g transform="matrix(-0.9659258262890683,-0.2588190451025208,0.2588190451025208,-0.9659258262890683,1559.7365210779485,1179.3432085781878)" style="transform:matrix(-0.965926, -0.258819, 0.258819, -0.965926, 1559.74, 1179.34);;animation:none"><path stroke-width="2" stroke-opacity="0.0847457627118644" stroke="rgb(1, 100, 210)" fill="none" d="M 0 582.785 C 286 582.785 572 567.215 858 567.215 C 1144 567.215 1430 582.785 1716 582.785 C 2002 582.785 2288 567.215 2574 567.215 C 2860 567.215 3146 582.785 3432 582.785" transform="matrix(1,0,0,1,-445.8999938964844,0)" style="fill:none;stroke:rgb(1, 100, 210);transform:matrix(1, 0, 0, 1, -445.9, 0);;animation:none"></path></g>
<g transform="matrix(-0.9510565162951536,-0.3090169943749473,0.3090169943749473,-0.9510565162951536,1522.539686462495,1215.1465961122572)" style="transform:matrix(-0.951057, -0.309017, 0.309017, -0.951057, 1522.54, 1215.15);;animation:none"><path stroke-width="2" stroke-opacity="0.1016949152542373" stroke="rgb(1, 100, 209)" fill="none" d="M 0 585.88 C 286 585.88 572 564.12 858 564.12 C 1144 564.12 1430 585.88 1716 585.88 C 2002 585.88 2288 564.12 2574 564.12 C 2860 564.12 3146 585.88 3432 585.88" transform="matrix(1,0,0,1,-452.760009765625,0)" style="fill:none;stroke:rgb(1, 100, 209);transform:matrix(1, 0, 0, 1, -452.76, 0);;animation:none"></path></g>
<g transform="matrix(-0.9335804264972016,-0.35836794954530043,0.35836794954530043,-0.9335804264972016,1483.520024292789,1248.9541844392324)" style="transform:matrix(-0.93358, -0.358368, 0.358368, -0.93358, 1483.52, 1248.95);;animation:none"><path stroke-width="2" stroke-opacity="0.11864406779661017" stroke="rgb(2, 101, 208)" fill="none" d="M 0 588.955 C 286 588.955 572 561.045 858 561.045 C 1144 561.045 1430 588.955 1716 588.955 C 2002 588.955 2288 561.045 2574 561.045 C 2860 561.045 3146 588.955 3432 588.955" transform="matrix(1,0,0,1,-459.6200256347656,0)" style="fill:none;stroke:rgb(2, 101, 208);transform:matrix(1, 0, 0, 1, -459.62, 0);;animation:none"></path></g>
<g transform="matrix(-0.9135454576426009,-0.4067366430758002,0.4067366430758002,-0.9135454576426009,1442.7844847506155,1280.6733093094454)" style="transform:matrix(-0.913545, -0.406737, 0.406737, -0.913545, 1442.78, 1280.67);;animation:none"><path stroke-width="2" stroke-opacity="0.13559322033898305" stroke="rgb(3, 101, 208)" fill="none" d="M 0 592.005 C 286 592.005 572 557.995 858 557.995 C 1144 557.995 1430 592.005 1716 592.005 C 2002 592.005 2288 557.995 2574 557.995 C 2860 557.995 3146 592.005 3432 592.005" transform="matrix(1,0,0,1,-466.4800109863281,0)" style="fill:none;stroke:rgb(3, 101, 208);transform:matrix(1, 0, 0, 1, -466.48, 0);;animation:none"></path></g>
<g transform="matrix(-0.8910065241883679,-0.4539904997395467,0.4539904997395467,-0.8910065241883679,1400.4447211183663,1310.2170308063965)" style="transform:matrix(-0.891007, -0.45399, 0.45399, -0.891007, 1400.44, 1310.22);;animation:none"><path stroke-width="2" stroke-opacity="0.15254237288135594" stroke="rgb(4, 101, 207)" fill="none" d="M 0 595.025 C 286 595.025 572 554.975 858 554.975 C 1144 554.975 1430 595.025 1716 595.025 C 2002 595.025 2288 554.975 2574 554.975 C 2860 554.975 3146 595.025 3432 595.025" transform="matrix(1,0,0,1,-473.3395690917969,0)" style="fill:none;stroke:rgb(4, 101, 207);transform:matrix(1, 0, 0, 1, -473.34, 0);;animation:none"></path></g>
<g transform="matrix(-0.8660254037844386,-0.5000000000000001,0.5000000000000001,-0.8660254037844386,1356.616783745156,1337.5043716430218)" style="transform:matrix(-0.866025, -0.5, 0.5, -0.866025, 1356.62, 1337.5);;animation:none"><path stroke-width="2" stroke-opacity="0.1694915254237288" stroke="rgb(5, 102, 206)" fill="none" d="M 0 598.011 C 286 598.011 572 551.99 858 551.99 C 1144 551.99 1430 598.011 1716 598.011 C 2002 598.011 2288 551.99 2574 551.99 C 2860 551.99 3146 598.011 3432 598.011" transform="matrix(1,0,0,1,-480.20001220703125,0)" style="fill:none;stroke:rgb(5, 102, 206);transform:matrix(1, 0, 0, 1, -480.2, 0);;animation:none"></path></g>
<g transform="matrix(-0.838670567945424,-0.5446390350150271,0.5446390350150271,-0.838670567945424,1311.420801960883,1362.4605391148073)" style="transform:matrix(-0.838671, -0.544639, 0.544639, -0.838671, 1311.42, 1362.46);;animation:none"><path stroke-width="2" stroke-opacity="0.1864406779661017" stroke="rgb(7, 102, 204)" fill="none" d="M 0 600.957 C 286 600.957 572 549.043 858 549.043 C 1144 549.043 1430 600.957 1716 600.957 C 2002 600.957 2288 549.043 2574 549.043 C 2860 549.043 3146 600.957 3432 600.957" transform="matrix(1,0,0,1,-487.0600280761719,0)" style="fill:none;stroke:rgb(7, 102, 204);transform:matrix(1, 0, 0, 1, -487.06, 0);;animation:none"></path></g>
<g transform="matrix(-0.8090169943749475,-0.587785252292473,0.587785252292473,-0.8090169943749475,1264.980654810083,1385.017130101395)" style="transform:matrix(-0.809017, -0.587785, 0.587785, -0.809017, 1264.98, 1385.02);;animation:none"><path stroke-width="2" stroke-opacity="0.2033898305084746" stroke="rgb(9, 103, 203)" fill="none" d="M 0 603.86 C 286 603.86 572 546.14 858 546.14 C 1144 546.14 1430 603.86 1716 603.86 C 2002 603.86 2288 546.14 2574 546.14 C 2860 546.14 3146 603.86 3432 603.86" transform="matrix(1,0,0,1,-493.91998291015625,0)" style="fill:none;stroke:rgb(9, 103, 203);transform:matrix(1, 0, 0, 1, -493.92, 0);;animation:none"></path></g>
<g transform="matrix(-0.7771459614569708,-0.6293203910498376,0.6293203910498376,-0.7771459614569708,1217.4236315080816,1405.1123185547806)" style="transform:matrix(-0.777146, -0.62932, 0.62932, -0.777146, 1217.42, 1405.11);;animation:none"><path stroke-width="2" stroke-opacity="0.22033898305084745" stroke="rgb(11, 103, 201)" fill="none" d="M 0 606.716 C 286 606.716 572 543.284 858 543.284 C 1144 543.284 1430 606.716 1716 606.716 C 2002 606.716 2288 543.284 2574 543.284 C 2860 543.284 3146 606.716 3432 606.716" transform="matrix(1,0,0,1,-500.7799987792969,0)" style="fill:none;stroke:rgb(11, 103, 201);transform:matrix(1, 0, 0, 1, -500.78, 0);;animation:none"></path></g>
<g transform="matrix(-0.7431448254773942,-0.6691306063588582,0.6691306063588582,-0.7431448254773942,1168.8800825501016,1422.691024960212)" style="transform:matrix(-0.743145, -0.669131, 0.669131, -0.743145, 1168.88, 1422.69);;animation:none"><path stroke-width="2" stroke-opacity="0.23728813559322035" stroke="rgb(13, 104, 199)" fill="none" d="M 0 609.521 C 286 609.521 572 540.479 858 540.479 C 1144 540.479 1430 609.521 1716 609.521 C 2002 609.521 2288 540.479 2574 540.479 C 2860 540.479 3146 609.521 3432 609.521" transform="matrix(1,0,0,1,-507.6400146484375,0)" style="fill:none;stroke:rgb(13, 104, 199);transform:matrix(1, 0, 0, 1, -507.64, 0);;animation:none"></path></g>
<g transform="matrix(-0.7071067811865477,-0.7071067811865475,0.7071067811865475,-0.7071067811865477,1119.483062429616,1437.7050673053132)" style="transform:matrix(-0.707107, -0.707107, 0.707107, -0.707107, 1119.48, 1437.71);;animation:none"><path stroke-width="2" stroke-opacity="0.2542372881355932" stroke="rgb(16, 105, 197)" fill="none" d="M 0 612.271 C 286 612.271 572 537.729 858 537.729 C 1144 537.729 1430 612.271 1716 612.271 C 2002 612.271 2288 537.729 2574 537.729 C 2860 537.729 3146 612.271 3432 612.271" transform="matrix(1,0,0,1,-514.5,0)" style="fill:none;stroke:rgb(16, 105, 197);transform:matrix(1, 0, 0, 1, -514.5, 0);;animation:none"></path></g>
<g transform="matrix(-0.6691306063588581,-0.7431448254773944,0.7431448254773944,-0.6691306063588581,1069.3679649452297,1450.1132931436296)" style="transform:matrix(-0.669131, -0.743145, 0.743145, -0.669131, 1069.37, 1450.11);;animation:none"><path stroke-width="2" stroke-opacity="0.2711864406779661" stroke="rgb(19, 106, 194)" fill="none" d="M 0 614.965 C 286 614.965 572 535.035 858 535.035 C 1144 535.035 1430 614.965 1716 614.965 C 2002 614.965 2288 535.035 2574 535.035 C 2860 535.035 3146 614.965 3432 614.965" transform="matrix(1,0,0,1,-521.3599853515625,0)" style="fill:none;stroke:rgb(19, 106, 194);transform:matrix(1, 0, 0, 1, -521.36, 0);;animation:none"></path></g>
<g transform="matrix(-0.6293203910498378,-0.7771459614569706,0.7771459614569706,-0.6293203910498378,1018.6721520956912,1459.8816923906234)" style="transform:matrix(-0.62932, -0.777146, 0.777146, -0.62932, 1018.67, 1459.88);;animation:none"><path stroke-width="2" stroke-opacity="0.288135593220339" stroke="rgb(22, 107, 191)" fill="none" d="M 0 617.599 C 286 617.599 572 532.401 858 532.401 C 1144 532.401 1430 617.599 1716 617.599 C 2002 617.599 2288 532.401 2574 532.401 C 2860 532.401 3146 617.599 3432 617.599" transform="matrix(1,0,0,1,-528.219970703125,0)" style="fill:none;stroke:rgb(22, 107, 191);transform:matrix(1, 0, 0, 1, -528.22, 0);;animation:none"></path></g>
<g transform="matrix(-0.5877852522924732,-0.8090169943749473,0.8090169943749473,-0.5877852522924732,967.5345775801965,1466.9834905429518)" style="transform:matrix(-0.587785, -0.809017, 0.809017, -0.587785, 967.535, 1466.98);;animation:none"><path stroke-width="2" stroke-opacity="0.3050847457627119" stroke="rgb(25, 108, 188)" fill="none" d="M 0 620.172 C 286 620.172 572 529.828 858 529.828 C 1144 529.828 1430 620.172 1716 620.172 C 2002 620.172 2288 529.828 2574 529.828 C 2860 529.828 3146 620.172 3432 620.172" transform="matrix(1,0,0,1,-535.0800170898438,0)" style="fill:none;stroke:rgb(25, 108, 188);transform:matrix(1, 0, 0, 1, -535.08, 0);;animation:none"></path></g>
<g transform="matrix(-0.544639035015027,-0.8386705679454242,0.8386705679454242,-0.544639035015027,916.095405935964,1471.3992220655193)" style="transform:matrix(-0.544639, -0.838671, 0.838671, -0.544639, 916.095, 1471.4);;animation:none"><path stroke-width="2" stroke-opacity="0.3220338983050847" stroke="rgb(29, 109, 185)" fill="none" d="M 0 622.681 C 286 622.681 572 527.319 858 527.319 C 1144 527.319 1430 622.681 1716 622.681 C 2002 622.681 2288 527.319 2574 527.319 C 2860 527.319 3146 622.681 3432 622.681" transform="matrix(1,0,0,1,-541.9400024414062,0)" style="fill:none;stroke:rgb(29, 109, 185);transform:matrix(1, 0, 0, 1, -541.94, 0);;animation:none"></path></g>
<g transform="matrix(-0.5000000000000004,-0.8660254037844384,0.8660254037844384,-0.5000000000000004,864.4956283569788,1473.1167837451562)" style="transform:matrix(-0.5, -0.866025, 0.866025, -0.5, 864.496, 1473.12);;animation:none"><path stroke-width="2" stroke-opacity="0.3389830508474576" stroke="rgb(34, 110, 182)" fill="none" d="M 0 625.125 C 286 625.125 572 524.875 858 524.875 C 1144 524.875 1430 625.125 1716 625.125 C 2002 625.125 2288 524.875 2574 524.875 C 2860 524.875 3146 625.125 3432 625.125" transform="matrix(1,0,0,1,-548.7999877929688,0)" style="fill:none;stroke:rgb(34, 110, 182);transform:matrix(1, 0, 0, 1, -548.8, 0);;animation:none"></path></g>
<g transform="matrix(-0.45399049973954697,-0.8910065241883678,0.8910065241883678,-0.45399049973954697,812.8766762469264,1472.1314678646847)" style="transform:matrix(-0.45399, -0.891007, 0.891007, -0.45399, 812.877, 1472.13);;animation:none"><path stroke-width="2" stroke-opacity="0.3559322033898305" stroke="rgb(38, 112, 178)" fill="none" d="M 0 627.503 C 286 627.503 572 522.497 858 522.497 C 1144 522.497 1430 627.503 1716 627.503 C 2002 627.503 2288 522.497 2574 522.497 C 2860 522.497 3146 627.503 3432 627.503" transform="matrix(1,0,0,1,-555.6599731445312,0)" style="fill:none;stroke:rgb(38, 112, 178);transform:matrix(1, 0, 0, 1, -555.66, 0);;animation:none"></path></g>
<g transform="matrix(-0.4067366430758001,-0.913545457642601,0.913545457642601,-0.4067366430758001,761.3800335655519,1468.445975106445)" style="transform:matrix(-0.406737, -0.913545, 0.913545, -0.406737, 761.38, 1468.45);;animation:none"><path stroke-width="2" stroke-opacity="0.3728813559322034" stroke="rgb(43, 113, 174)" fill="none" d="M 0 629.813 C 286 629.813 572 520.187 858 520.187 C 1144 520.187 1430 629.813 1716 629.813 C 2002 629.813 2288 520.187 2574 520.187 C 2860 520.187 3146 629.813 3432 629.813" transform="matrix(1,0,0,1,-562.52001953125,0)" style="fill:none;stroke:rgb(43, 113, 174);transform:matrix(1, 0, 0, 1, -562.52, 0);;animation:none"></path></g>
<g transform="matrix(-0.3583679495453007,-0.9335804264972015,0.9335804264972015,-0.3583679495453007,710.1468490309583,1462.0704071499117)" style="transform:matrix(-0.358368, -0.93358, 0.93358, -0.358368, 710.147, 1462.07);;animation:none"><path stroke-width="2" stroke-opacity="0.3898305084745763" stroke="rgb(48, 115, 169)" fill="none" d="M 0 632.055 C 286 632.055 572 517.945 858 517.945 C 1144 517.945 1430 632.055 1716 632.055 C 2002 632.055 2288 517.945 2574 517.945 C 2860 517.945 3146 632.055 3432 632.055" transform="matrix(1,0,0,1,-569.3800048828125,0)" style="fill:none;stroke:rgb(48, 115, 169);transform:matrix(1, 0, 0, 1, -569.38, 0);;animation:none"></path></g>
<g transform="matrix(-0.30901699437494756,-0.9510565162951535,0.9510565162951535,-0.30901699437494756,659.3175492407777,1453.0222389836936)" style="transform:matrix(-0.309017, -0.951057, 0.951057, -0.309017, 659.318, 1453.02);;animation:none"><path stroke-width="2" stroke-opacity="0.4067796610169492" stroke="rgb(54, 116, 164)" fill="none" d="M 0 634.229 C 286 634.229 572 515.771 858 515.771 C 1144 515.771 1430 634.229 1716 634.229 C 2002 634.229 2288 515.771 2574 515.771 C 2860 515.771 3146 634.229 3432 634.229" transform="matrix(1,0,0,1,-576.239990234375,0)" style="fill:none;stroke:rgb(54, 116, 164);transform:matrix(1, 0, 0, 1, -576.24, 0);;animation:none"></path></g>
<g transform="matrix(-0.25881904510252063,-0.9659258262890683,0.9659258262890683,-0.25881904510252063,609.0314537726351,1441.3262710078036)" style="transform:matrix(-0.258819, -0.965926, 0.965926, -0.258819, 609.031, 1441.33);;animation:none"><path stroke-width="2" stroke-opacity="0.423728813559322" stroke="rgb(60, 118, 159)" fill="none" d="M 0 636.334 C 286 636.334 572 513.666 858 513.666 C 1144 513.666 1430 636.334 1716 636.334 C 2002 636.334 2288 513.666 2574 513.666 C 2860 513.666 3146 636.334 3432 636.334" transform="matrix(1,0,0,1,-583.1000366210938,0)" style="fill:none;stroke:rgb(60, 118, 159);transform:matrix(1, 0, 0, 1, -583.1, 0);;animation:none"></path></g>
<g transform="matrix(-0.2079116908177598,-0.9781476007338056,0.9781476007338056,-0.2079116908177598,559.4263933188656,1427.0145610574873)" style="transform:matrix(-0.207912, -0.978148, 0.978148, -0.207912, 559.426, 1427.01);;animation:none"><path stroke-width="2" stroke-opacity="0.4406779661016949" stroke="rgb(66, 120, 154)" fill="none" d="M 0 638.37 C 286 638.37 572 511.63 858 511.63 C 1144 511.63 1430 638.37 1716 638.37 C 2002 638.37 2288 511.63 2574 511.63 C 2860 511.63 3146 638.37 3432 638.37" transform="matrix(1,0,0,1,-589.9600219726562,0)" style="fill:none;stroke:rgb(66, 120, 154);transform:matrix(1, 0, 0, 1, -589.96, 0);;animation:none"></path></g>
<g transform="matrix(-0.15643446504023104,-0.9876883405951377,0.9876883405951377,-0.15643446504023104,510.63833190216604,1410.1263365349232)" style="transform:matrix(-0.156434, -0.987688, 0.987688, -0.156434, 510.638, 1410.13);;animation:none"><path stroke-width="2" stroke-opacity="0.4576271186440678" stroke="rgb(72, 122, 149)" fill="none" d="M 0 640.337 C 286 640.337 572 509.663 858 509.663 C 1144 509.663 1430 640.337 1716 640.337 C 2002 640.337 2288 509.663 2574 509.663 C 2860 509.663 3146 640.337 3432 640.337" transform="matrix(1,0,0,1,-596.8200073242188,0)" style="fill:none;stroke:rgb(72, 122, 149);transform:matrix(1, 0, 0, 1, -596.82, 0);;animation:none"></path></g>
<g transform="matrix(-0.10452846326765336,-0.9945218953682734,0.9945218953682734,-0.10452846326765336,462.8009942076636,1390.7078868896415)" style="transform:matrix(-0.104528, -0.994522, 0.994522, -0.104528, 462.801, 1390.71);;animation:none"><path stroke-width="2" stroke-opacity="0.4745762711864407" stroke="rgb(79, 124, 143)" fill="none" d="M 0 642.236 C 286 642.236 572 507.764 858 507.764 C 1144 507.764 1430 642.236 1716 642.236 C 2002 642.236 2288 507.764 2574 507.764 C 2860 507.764 3146 642.236 3432 642.236" transform="matrix(1,0,0,1,-603.6799926757812,0)" style="fill:none;stroke:rgb(79, 124, 143);transform:matrix(1, 0, 0, 1, -603.68, 0);;animation:none"></path></g>
<g transform="matrix(-0.052335956242944306,-0.9986295347545738,0.9986295347545738,-0.052335956242944306,416.0454990528473,1368.8124367423611)" style="transform:matrix(-0.052336, -0.99863, 0.99863, -0.052336, 416.045, 1368.81);;animation:none"><path stroke-width="2" stroke-opacity="0.4915254237288136" stroke="rgb(86, 126, 137)" fill="none" d="M 0 644.066 C 286 644.066 572 505.934 858 505.934 C 1144 505.934 1430 644.066 1716 644.066 C 2002 644.066 2288 505.934 2574 505.934 C 2860 505.934 3146 644.066 3432 644.066" transform="matrix(1,0,0,1,-610.5400390625,0)" style="fill:none;stroke:rgb(86, 126, 137);transform:matrix(1, 0, 0, 1, -610.54, 0);;animation:none"></path></g>
<g transform="matrix(-1.8369701987210297e-16,-1,1,-1.8369701987210297e-16,370.50000000000017,1344.5)" style="transform:matrix(0, -1, 1, 0, 370.5, 1344.5);;animation:none"><path stroke-width="2" stroke-opacity="0.5084745762711864" stroke="rgb(94, 129, 131)" fill="none" d="M 0 645.829 C 286 645.829 572 504.171 858 504.171 C 1144 504.171 1430 645.829 1716 645.829 C 2002 645.829 2288 504.171 2574 504.171 C 2860 504.171 3146 645.829 3432 645.829" transform="matrix(1,0,0,1,-617.4000244140625,0)" style="fill:none;stroke:rgb(94, 129, 131);transform:matrix(1, 0, 0, 1, -617.4, 0);;animation:none"></path></g>
<g transform="matrix(0.052335956242943946,-0.9986295347545738,0.9986295347545738,0.052335956242943946,326.2893340961981,1317.8372153617333)" style="transform:matrix(0.052336, -0.99863, 0.99863, 0.052336, 326.289, 1317.84);;animation:none"><path stroke-width="2" stroke-opacity="0.5254237288135594" stroke="rgb(101, 131, 124)" fill="none" d="M 0 647.525 C 286 647.525 572 502.475 858 502.475 C 1144 502.475 1430 647.525 1716 647.525 C 2002 647.525 2288 502.475 2574 502.475 C 2860 502.475 3146 647.525 3432 647.525" transform="matrix(1,0,0,1,-624.260009765625,0)" style="fill:none;stroke:rgb(101, 131, 124);transform:matrix(1, 0, 0, 1, -624.26, 0);;animation:none"></path></g>
<g transform="matrix(0.10452846326765299,-0.9945218953682734,0.9945218953682734,0.10452846326765299,283.5346797036384,1288.8971636669476)" style="transform:matrix(0.104528, -0.994522, 0.994522, 0.104528, 283.535, 1288.9);;animation:none"><path stroke-width="2" stroke-opacity="0.5423728813559322" stroke="rgb(109, 133, 118)" fill="none" d="M 0 649.155 C 286 649.155 572 500.845 858 500.845 C 1144 500.845 1430 649.155 1716 649.155 C 2002 649.155 2288 500.845 2574 500.845 C 2860 500.845 3146 649.155 3432 649.155" transform="matrix(1,0,0,1,-631.1199951171875,0)" style="fill:none;stroke:rgb(109, 133, 118);transform:matrix(1, 0, 0, 1, -631.12, 0);;animation:none"></path></g>
<g transform="matrix(0.15643446504023067,-0.9876883405951378,0.9876883405951378,0.15643446504023067,242.3532243581701,1257.7591675857384)" style="transform:matrix(0.156434, -0.987688, 0.987688, 0.156434, 242.353, 1257.76);;animation:none"><path stroke-width="2" stroke-opacity="0.559322033898305" stroke="rgb(117, 136, 111)" fill="none" d="M 0 650.72 C 286 650.72 572 499.28 858 499.28 C 1144 499.28 1430 650.72 1716 650.72 C 2002 650.72 2288 499.28 2574 499.28 C 2860 499.28 3146 650.72 3432 650.72" transform="matrix(1,0,0,1,-637.9800415039062,0)" style="fill:none;stroke:rgb(117, 136, 111);transform:matrix(1, 0, 0, 1, -637.98, 0);;animation:none"></path></g>
<g transform="matrix(0.20791169081775945,-0.9781476007338056,0.9781476007338056,0.20791169081775945,202.85784356640795,1224.5085742009894)" style="transform:matrix(0.207912, -0.978148, 0.978148, 0.207912, 202.858, 1224.51);;animation:none"><path stroke-width="2" stroke-opacity="0.576271186440678" stroke="rgb(124, 138, 104)" fill="none" d="M 0 652.22 C 286 652.22 572 497.78 858 497.78 C 1144 497.78 1430 652.22 1716 652.22 C 2002 652.22 2288 497.78 2574 497.78 C 2860 497.78 3146 652.22 3432 652.22" transform="matrix(1,0,0,1,-644.8399658203125,0)" style="fill:none;stroke:rgb(124, 138, 104);transform:matrix(1, 0, 0, 1, -644.84, 0);;animation:none"></path></g>
<g transform="matrix(0.2588190451025203,-0.9659258262890684,0.9659258262890684,0.2588190451025203,165.1567914218126,1189.2365210779487)" style="transform:matrix(0.258819, -0.965926, 0.965926, 0.258819, 165.157, 1189.24);;animation:none"><path stroke-width="2" stroke-opacity="0.5932203389830508" stroke="rgb(132, 140, 98)" fill="none" d="M 0 653.657 C 286 653.657 572 496.343 858 496.343 C 1144 496.343 1430 653.657 1716 653.657 C 2002 653.657 2288 496.343 2574 496.343 C 2860 496.343 3146 653.657 3432 653.657" transform="matrix(1,0,0,1,-651.7000122070312,0)" style="fill:none;stroke:rgb(132, 140, 98);transform:matrix(1, 0, 0, 1, -651.7, 0);;animation:none"></path></g>
<g transform="matrix(0.30901699437494723,-0.9510565162951536,0.9510565162951536,0.30901699437494723,129.35340388774284,1152.039686462495)" style="transform:matrix(0.309017, -0.951057, 0.951057, 0.309017, 129.353, 1152.04);;animation:none"><path stroke-width="2" stroke-opacity="0.6101694915254238" stroke="rgb(140, 143, 91)" fill="none" d="M 0 655.031 C 286 655.031 572 494.969 858 494.969 C 1144 494.969 1430 655.031 1716 655.031 C 2002 655.031 2288 494.969 2574 494.969 C 2860 494.969 3146 655.031 3432 655.031" transform="matrix(1,0,0,1,-658.5599975585938,0)" style="fill:none;stroke:rgb(140, 143, 91);transform:matrix(1, 0, 0, 1, -658.56, 0);;animation:none"></path></g>
<g transform="matrix(0.3583679495453004,-0.9335804264972017,0.9335804264972017,0.3583679495453004,95.54581556076766,1113.0200242927892)" style="transform:matrix(0.358368, -0.93358, 0.93358, 0.358368, 95.5458, 1113.02);;animation:none"><path stroke-width="2" stroke-opacity="0.6271186440677966" stroke="rgb(148, 145, 85)" fill="none" d="M 0 656.343 C 286 656.343 572 493.656 858 493.656 C 1144 493.656 1430 656.343 1716 656.343 C 2002 656.343 2288 493.656 2574 493.656 C 2860 493.656 3146 656.343 3432 656.343" transform="matrix(1,0,0,1,-665.4200439453125,0)" style="fill:none;stroke:rgb(148, 145, 85);transform:matrix(1, 0, 0, 1, -665.42, 0);;animation:none"></path></g>
<g transform="matrix(0.40673664307579976,-0.9135454576426011,0.9135454576426011,0.40673664307579976,63.82669069055498,1072.284484750616)" style="transform:matrix(0.406737, -0.913545, 0.913545, 0.406737, 63.8267, 1072.28);;animation:none"><path stroke-width="2" stroke-opacity="0.6440677966101694" stroke="rgb(155, 147, 78)" fill="none" d="M 0 657.596 C 286 657.596 572 492.404 858 492.404 C 1144 492.404 1430 657.596 1716 657.596 C 2002 657.596 2288 492.404 2574 492.404 C 2860 492.404 3146 657.596 3432 657.596" transform="matrix(1,0,0,1,-672.2799682617188,0)" style="fill:none;stroke:rgb(155, 147, 78);transform:matrix(1, 0, 0, 1, -672.28, 0);;animation:none"></path></g>
<g transform="matrix(0.45399049973954664,-0.8910065241883679,0.8910065241883679,0.45399049973954664,34.28296919360355,1029.9447211183663)" style="transform:matrix(0.45399, -0.891007, 0.891007, 0.45399, 34.283, 1029.94);;animation:none"><path stroke-width="2" stroke-opacity="0.6610169491525424" stroke="rgb(162, 150, 72)" fill="none" d="M 0 658.789 C 286 658.789 572 491.211 858 491.211 C 1144 491.211 1430 658.789 1716 658.789 C 2002 658.789 2288 491.211 2574 491.211 C 2860 491.211 3146 658.789 3432 658.789" transform="matrix(1,0,0,1,-679.1400146484375,0)" style="fill:none;stroke:rgb(162, 150, 72);transform:matrix(1, 0, 0, 1, -679.14, 0);;animation:none"></path></g>
<g></g></g><!-- [ldio] generated by https://loading.io --></svg>